<svg width="70" height="76" viewBox="0 0 70 76" fill="none" xmlns="http://www.w3.org/2000/svg">
<path d="M0 10C0 4.47715 4.47715 0 10 0H60C65.5229 0 70 4.47715 70 10V66C70 71.5229 65.5229 76 60 76H10C4.47715 76 0 71.5229 0 66V10Z" fill="#FFDCD1"/>
<path d="M45.666 48.6667H24.3327C22.8599 48.6667 21.666 47.4728 21.666 46V30C21.666 28.5273 22.8599 27.3334 24.3327 27.3334H45.666C47.1388 27.3334 48.3327 28.5273 48.3327 30V46C48.3327 47.4728 47.1388 48.6667 45.666 48.6667ZM24.3327 38V46H45.666V38H24.3327ZM24.3327 30V32.6667H45.666V30H24.3327ZM36.3327 43.3334H26.9993V40.6667H36.3327V43.3334Z" fill="#E74040"/>
</svg>
