<svg width="70" height="76" viewBox="0 0 70 76" fill="none" xmlns="http://www.w3.org/2000/svg">
<path d="M0 10C0 4.47715 4.47715 0 10 0H60C65.5228 0 70 4.47715 70 10V66C70 71.5228 65.5228 76 60 76H10C4.47715 76 0 71.5228 0 66V10Z" fill="#B3E3FF"/>
<path d="M28.3327 50H25.666V47.3333H21.666V44.6667H25.666V42H28.3327V50ZM48.3327 47.3333H30.9993V44.6667H48.3327V47.3333ZM41.666 42H38.9993V39.3333H21.666V36.6667H38.9993V34.016H41.666V42ZM48.3327 39.3333H44.3327V36.6667H48.3327V39.3333ZM33.666 34H30.9993V31.3333H21.666V28.6667H30.9993V26H33.666V34ZM48.3327 31.3333H36.3327V28.6667H48.3327V31.3333Z" fill="#23A6F0"/>
</svg>
