<svg width="17" height="16" viewBox="0 0 17 16" fill="none" xmlns="http://www.w3.org/2000/svg">
<g clip-path="url(#clip0_1_208)">
<path d="M1 9.89999C1.13261 9.89999 1.25979 9.95267 1.35355 10.0464C1.44732 10.1402 1.5 10.2674 1.5 10.4V12.9C1.5 13.1652 1.60536 13.4196 1.79289 13.6071C1.98043 13.7946 2.23478 13.9 2.5 13.9H14.5C14.7652 13.9 15.0196 13.7946 15.2071 13.6071C15.3946 13.4196 15.5 13.1652 15.5 12.9V10.4C15.5 10.2674 15.5527 10.1402 15.6464 10.0464C15.7402 9.95267 15.8674 9.89999 16 9.89999C16.1326 9.89999 16.2598 9.95267 16.3536 10.0464C16.4473 10.1402 16.5 10.2674 16.5 10.4V12.9C16.5 13.4304 16.2893 13.9391 15.9142 14.3142C15.5391 14.6893 15.0304 14.9 14.5 14.9H2.5C1.96957 14.9 1.46086 14.6893 1.08579 14.3142C0.710714 13.9391 0.5 13.4304 0.5 12.9V10.4C0.5 10.2674 0.552678 10.1402 0.646447 10.0464C0.740215 9.95267 0.867392 9.89999 1 9.89999Z" fill="#737373"/>
<path d="M8.14663 11.854C8.19308 11.9006 8.24825 11.9375 8.309 11.9627C8.36974 11.9879 8.43486 12.0009 8.50063 12.0009C8.5664 12.0009 8.63152 11.9879 8.69227 11.9627C8.75301 11.9375 8.80819 11.9006 8.85463 11.854L11.8546 8.854C11.9485 8.76011 12.0013 8.63278 12.0013 8.5C12.0013 8.36722 11.9485 8.23989 11.8546 8.146C11.7607 8.05211 11.6334 7.99937 11.5006 7.99937C11.3679 7.99937 11.2405 8.05211 11.1466 8.146L9.00063 10.293V1.5C9.00063 1.36739 8.94795 1.24021 8.85419 1.14645C8.76042 1.05268 8.63324 1 8.50063 1C8.36802 1 8.24085 1.05268 8.14708 1.14645C8.05331 1.24021 8.00063 1.36739 8.00063 1.5V10.293L5.85463 8.146C5.76075 8.05211 5.63341 7.99937 5.50063 7.99937C5.36786 7.99937 5.24052 8.05211 5.14663 8.146C5.05275 8.23989 5 8.36722 5 8.5C5 8.63278 5.05275 8.76011 5.14663 8.854L8.14663 11.854Z" fill="#737373"/>
</g>
<defs>
<clipPath id="clip0_1_208">
<rect width="16" height="16" fill="white" transform="translate(0.5)"/>
</clipPath>
</defs>
</svg>
