<svg id="Шар_1" data-name="Шар 1" xmlns="http://www.w3.org/2000/svg" viewBox="0 0 1080 1080"><defs><style>.cls-1{fill:#c6c6c6;}.cls-2{fill:#1b54a1;}</style></defs><path class="cls-1" d="M383.16,664.33h-7l-8.69-17.47H324.05l-8.59,17.47h-6.78l33.23-67.41h7.26Zm-18.33-22.82-19.29-38.58-18.91,38.58Z"/><path class="cls-1" d="M437.4,602.46H408.47v61.87h-6.4V602.46H371.8v-5.54h65.6Z"/><path class="cls-1" d="M515.13,664.33h-6.4V631.39H452.1v32.94h-6.59V596.92h6.59v28.84h56.63V596.92h6.4Z"/><path class="cls-1" d="M602.4,664.33H535.08V596.92h64.55v5.54h-58v23.68h53.57v5.73H541.67V658.7H602.4Z"/><path class="cls-1" d="M688.44,664.33h-6l-57.77-58.82v58.82h-6V596.92h6L682.42,656V596.92h6Z"/><path class="cls-1" d="M771.32,664.33h-7l-8.69-17.47H712.21l-8.59,17.47h-6.78l33.23-67.41h7.26ZM753,641.51,733.7,602.93l-18.91,38.58Z"/><polygon class="cls-1" points="525.57 500.2 517 525.36 506.2 557.01 473.2 557.01 473.2 556.91 487.8 514.09 492.54 500.2 525.57 500.2"/><polygon class="cls-2" points="606.8 557.01 573.76 557.01 573.4 555.97 558.81 513.15 554.39 500.2 546.29 476.44 544.21 470.34 529.77 427.99 529.62 427.52 525.57 415.67 558.61 415.67 558.81 416.24 562.81 427.99 573.4 459.06 587.43 500.2 588 501.88 602.6 544.7 606.8 557.01"/></svg>