<svg width="145" height="34" viewBox="0 0 145 34" fill="none" xmlns="http://www.w3.org/2000/svg">
<path d="M53.592 33.2863H51.9435L49.8971 29.17H39.6722L37.6493 33.2863H36.0527L43.878 17.4097H45.5877L53.592 33.2863ZM49.2754 27.9101L44.7329 18.8273L40.2798 27.9101H49.2754Z" fill="#C6C6C6"/>
<path d="M66.366 18.7143H59.5534V33.2863H58.0462V18.7143H50.918V17.4097H66.366V18.7143Z" fill="#C6C6C6"/>
<path d="M84.6701 33.2863H83.1654V25.527H69.8273V33.2863H68.2754V17.4097H69.8273V24.2012H83.1654V17.4097H84.6725L84.6701 33.2863Z" fill="#C6C6C6"/>
<path d="M105.22 33.2863H89.3672V17.4097H104.568V18.7143H90.9096V24.2907H103.534V25.64H90.9191V31.9488H105.22V33.2863Z" fill="#C6C6C6"/>
<path d="M125.483 33.2863H124.07L110.466 19.4325V33.2863H109.053V17.4097H110.466L124.07 31.3294V17.4097H125.483V33.2863Z" fill="#C6C6C6"/>
<path d="M145 33.2863H143.352L141.305 29.17H131.08L129.058 33.2863H127.461L135.286 17.4097H136.996L145 33.2863ZM140.684 27.9101L136.15 18.8273L131.697 27.9101H140.684Z" fill="#C6C6C6"/>
<path d="M12.3326 19.9082L10.3144 25.8308L7.7735 33.2863H0V33.2604L3.43814 23.1768L4.55436 19.9082H12.3326Z" fill="#C6C6C6"/>
<path d="M31.4608 33.2864H23.6803L23.5978 33.0391L20.1597 22.9555L19.1212 19.9082L17.2114 14.313L16.7216 12.8742L13.3234 2.90123L13.2858 2.7929L12.332 0H20.1126L20.1597 0.134231L21.1016 2.90123L23.5978 10.2179L26.8994 19.9082L27.0336 20.3015L30.4718 30.3852L31.4608 33.2864Z" fill="#1B54A1"/>
</svg>
