<svg width="23" height="23" viewBox="0 0 23 23" fill="none" xmlns="http://www.w3.org/2000/svg">
<path d="M21.1125 8.41927C21.0548 8.24946 20.9487 8.10025 20.8072 7.99006C20.6658 7.87987 20.4951 7.81353 20.3163 7.79922L15.0872 7.38371L12.8244 2.3747C12.7523 2.21337 12.6351 2.07634 12.4869 1.98016C12.3387 1.88397 12.1658 1.83274 11.9891 1.83264C11.8124 1.83254 11.6394 1.88359 11.4911 1.97961C11.3428 2.07563 11.2254 2.21253 11.1532 2.37378L8.89035 7.38371L3.6612 7.79922C3.48551 7.81314 3.31755 7.87738 3.17741 7.98425C3.03727 8.09113 2.93089 8.23612 2.871 8.40187C2.8111 8.56762 2.80023 8.74712 2.83968 8.91889C2.87913 9.09066 2.96722 9.24743 3.09344 9.37044L6.95774 13.1375L5.59106 19.0555C5.54957 19.2347 5.56287 19.4221 5.62924 19.5936C5.69561 19.7651 5.81199 19.9127 5.96328 20.0172C6.11457 20.1217 6.29377 20.1783 6.47765 20.1797C6.66152 20.1811 6.84157 20.1272 6.99443 20.025L11.9888 16.6955L16.9831 20.025C17.1393 20.1288 17.3236 20.1822 17.5111 20.1781C17.6986 20.1739 17.8803 20.1125 18.0319 20.002C18.1834 19.8916 18.2975 19.7373 18.3587 19.5601C18.42 19.3828 18.4255 19.1911 18.3746 19.0106L16.6969 13.1403L20.8575 9.39612C21.1299 9.15031 21.2299 8.7669 21.1125 8.41927Z" fill="#F3CD03"/>
</svg>
