<svg width="23" height="23" viewBox="0 0 23 23" fill="none" xmlns="http://www.w3.org/2000/svg">
<path d="M5.99967 13.1377L4.633 19.0557C4.59068 19.2349 4.60338 19.4227 4.66945 19.5945C4.73552 19.7664 4.85189 19.9143 5.00335 20.0191C5.15481 20.1238 5.33432 20.1804 5.51845 20.1814C5.70258 20.1825 5.88275 20.1281 6.03545 20.0252L11.0298 16.6956L16.0241 20.0252C16.1804 20.1289 16.3646 20.1823 16.5521 20.1782C16.7396 20.1741 16.9213 20.1127 17.0729 20.0022C17.2244 19.8917 17.3385 19.7375 17.3998 19.5602C17.461 19.383 17.4665 19.1912 17.4156 19.0107L15.7379 13.1404L19.8985 9.39628C20.0318 9.27629 20.1269 9.11988 20.1722 8.94638C20.2175 8.77289 20.211 8.58992 20.1534 8.4201C20.0958 8.25029 19.9897 8.10107 19.8483 7.99091C19.7068 7.88075 19.5361 7.81448 19.3574 7.80029L14.1282 7.38386L11.8654 2.37485C11.7932 2.21356 11.6759 2.0766 11.5277 1.98049C11.3794 1.88439 11.2065 1.83325 11.0298 1.83325C10.8531 1.83325 10.6802 1.88439 10.5319 1.98049C10.3836 2.0766 10.2663 2.21356 10.1942 2.37485L7.93137 7.38386L2.70222 7.79937C2.52653 7.81329 2.35857 7.87753 2.21843 7.98441C2.07829 8.09128 1.97191 8.23627 1.91202 8.40202C1.85212 8.56777 1.84125 8.74727 1.88069 8.91904C1.92014 9.09081 2.00824 9.24758 2.13445 9.37059L5.99967 13.1377ZM8.61654 9.16972C8.78027 9.15682 8.9375 9.10012 9.07177 9.00555C9.20604 8.91098 9.31239 8.78203 9.37968 8.63222L11.0298 4.98071L12.6799 8.63222C12.7472 8.78203 12.8535 8.91098 12.9878 9.00555C13.1221 9.10012 13.2793 9.15682 13.443 9.16972L17.0863 9.45865L14.086 12.159C13.8255 12.3938 13.7219 12.7552 13.8173 13.0927L14.9666 17.1148L11.5398 14.83C11.3894 14.729 11.2123 14.6751 11.0312 14.6751C10.85 14.6751 10.673 14.729 10.5226 14.83L6.94167 17.2175L7.90477 13.0478C7.94008 12.8944 7.93534 12.7346 7.89101 12.5836C7.84667 12.4326 7.76423 12.2955 7.65161 12.1856L4.86506 9.46874L8.61654 9.16972Z" fill="#F3CD03"/>
</svg>
